# xmcd
#
# Track frame offsets:
#	150
#	9835
#	29386
#	41801
#	55052
#	66300
#	78140
#	91778
#	104908
#	116127
#	124441
#	135180
#	146415
#	157823
#	166694
#	177686
#	188832
#	199763
#	208614
#	221678
#
# Disc length: 3081 seconds
#
# Revision: 0
# Processed by: cddbd v1.5.2PL0 Copyright (c) Steve Scherf et al.
# Submitted via: audiograbber 1.83.01
#
DISCID=180c0714
DTITLE=Various Artist - New Orleans: Gris Gris [CD 2)
DYEAR=2013
DGENRE=Blues
TTITLE0=Dr. John - Woman is the Root of All Evil
TTITLE1=Lee Dorsey - Night People
TTITLE2=Robert Parker - Get Ta' Steppin'
TTITLE3=Roger and the Gypsies - Pass the Hatchet
TTITLE4=Eddie Bo - (Ooh, Wee Baby) What You Gonna Do
TTITLE5=Barbara Lynn - You'll Lose a Good Thing
TTITLE6=Allen Toussaint - Louie
TTITLE7=Johnny Adams - A Losing Battle
TTITLE8=Irma Thomas - I Did My Part
TTITLE9=Clarence "Frogman" Henry - On Bended Knees
TTITLE10=Fats Domino - What a Price
TTITLE11=Huey "Piano" Smith - Tu-Ber-Cu-Lucas and the Sinus Blues
TTITLE12=Prince La La - Getting Married Soon
TTITLE13=Ronnie and the Delinquents - Bad Neighbourhood
TTITLE14=Slim Harpo - One More Day
TTITLE15=Guitar Slim - Well I Done Got Over It
TTITLE16=Juke Boy Bonner - Call Me Juke Boy
TTITLE17=Chris Kenner - I Like It Like That
TTITLE18=The Meters - Hand Clapping Song
TTITLE19=The Dixie-Cups - Iko, Iko
EXTD=Metroselect  #METRSL057 
EXTT0=
EXTT1=
EXTT2=
EXTT3=
EXTT4=
EXTT5=
EXTT6=
EXTT7=
EXTT8=
EXTT9=
EXTT10=
EXTT11=
EXTT12=
EXTT13=
EXTT14=
EXTT15=
EXTT16=
EXTT17=
EXTT18=
EXTT19=
PLAYORDER=
